<mxfile host="Electron" agent="Mozilla/5.0 (Windows NT 10.0; Win64; x64) AppleWebKit/537.36 (KHTML, like Gecko) draw.io/24.7.5 Chrome/126.0.6478.183 Electron/31.3.0 Safari/537.36" version="24.7.5">
  <diagram name="Page-1" id="hEn2GqF9Onb4Tb0oN2Cf">
    <mxGraphModel dx="2577" dy="1023" grid="1" gridSize="10" guides="1" tooltips="1" connect="1" arrows="1" fold="1" page="1" pageScale="1" pageWidth="850" pageHeight="1100" math="0" shadow="0">
      <root>
        <mxCell id="0" />
        <mxCell id="1" parent="0" />
        <mxCell id="K5uNCjZK_XgeOnh1Dpxe-1" value="" style="shape=trapezoid;perimeter=trapezoidPerimeter;whiteSpace=wrap;html=1;fixedSize=1;rotation=90;" vertex="1" parent="1">
          <mxGeometry x="121.88" y="305.63" width="521.25" height="135" as="geometry" />
        </mxCell>
        <mxCell id="K5uNCjZK_XgeOnh1Dpxe-2" value="0" style="text;html=1;align=center;verticalAlign=middle;resizable=0;points=[];autosize=1;strokeColor=none;fillColor=none;" vertex="1" parent="1">
          <mxGeometry x="330" y="130" width="30" height="30" as="geometry" />
        </mxCell>
        <mxCell id="K5uNCjZK_XgeOnh1Dpxe-4" value="1" style="text;html=1;align=center;verticalAlign=middle;resizable=0;points=[];autosize=1;strokeColor=none;fillColor=none;" vertex="1" parent="1">
          <mxGeometry x="330" y="160" width="30" height="30" as="geometry" />
        </mxCell>
        <mxCell id="K5uNCjZK_XgeOnh1Dpxe-5" value="2" style="text;html=1;align=center;verticalAlign=middle;resizable=0;points=[];autosize=1;strokeColor=none;fillColor=none;" vertex="1" parent="1">
          <mxGeometry x="330" y="190" width="30" height="30" as="geometry" />
        </mxCell>
        <mxCell id="K5uNCjZK_XgeOnh1Dpxe-6" value="3" style="text;html=1;align=center;verticalAlign=middle;resizable=0;points=[];autosize=1;strokeColor=none;fillColor=none;" vertex="1" parent="1">
          <mxGeometry x="330" y="220" width="30" height="30" as="geometry" />
        </mxCell>
        <mxCell id="K5uNCjZK_XgeOnh1Dpxe-7" value="5" style="text;html=1;align=center;verticalAlign=middle;resizable=0;points=[];autosize=1;strokeColor=none;fillColor=none;" vertex="1" parent="1">
          <mxGeometry x="330" y="280" width="30" height="30" as="geometry" />
        </mxCell>
        <mxCell id="K5uNCjZK_XgeOnh1Dpxe-8" value="4" style="text;html=1;align=center;verticalAlign=middle;resizable=0;points=[];autosize=1;strokeColor=none;fillColor=none;" vertex="1" parent="1">
          <mxGeometry x="330" y="250" width="30" height="30" as="geometry" />
        </mxCell>
        <mxCell id="K5uNCjZK_XgeOnh1Dpxe-9" value="7" style="text;html=1;align=center;verticalAlign=middle;resizable=0;points=[];autosize=1;strokeColor=none;fillColor=none;" vertex="1" parent="1">
          <mxGeometry x="330" y="340" width="30" height="30" as="geometry" />
        </mxCell>
        <mxCell id="K5uNCjZK_XgeOnh1Dpxe-10" value="6" style="text;html=1;align=center;verticalAlign=middle;resizable=0;points=[];autosize=1;strokeColor=none;fillColor=none;" vertex="1" parent="1">
          <mxGeometry x="330" y="310" width="30" height="30" as="geometry" />
        </mxCell>
        <mxCell id="K5uNCjZK_XgeOnh1Dpxe-11" value="9" style="text;html=1;align=center;verticalAlign=middle;resizable=0;points=[];autosize=1;strokeColor=none;fillColor=none;" vertex="1" parent="1">
          <mxGeometry x="330" y="400" width="30" height="30" as="geometry" />
        </mxCell>
        <mxCell id="K5uNCjZK_XgeOnh1Dpxe-12" value="8" style="text;html=1;align=center;verticalAlign=middle;resizable=0;points=[];autosize=1;strokeColor=none;fillColor=none;" vertex="1" parent="1">
          <mxGeometry x="330" y="370" width="30" height="30" as="geometry" />
        </mxCell>
        <mxCell id="K5uNCjZK_XgeOnh1Dpxe-13" value="11" style="text;html=1;align=center;verticalAlign=middle;resizable=0;points=[];autosize=1;strokeColor=none;fillColor=none;" vertex="1" parent="1">
          <mxGeometry x="325" y="460" width="40" height="30" as="geometry" />
        </mxCell>
        <mxCell id="K5uNCjZK_XgeOnh1Dpxe-14" value="10" style="text;html=1;align=center;verticalAlign=middle;resizable=0;points=[];autosize=1;strokeColor=none;fillColor=none;" vertex="1" parent="1">
          <mxGeometry x="325" y="430" width="40" height="30" as="geometry" />
        </mxCell>
        <mxCell id="K5uNCjZK_XgeOnh1Dpxe-15" value="13" style="text;html=1;align=center;verticalAlign=middle;resizable=0;points=[];autosize=1;strokeColor=none;fillColor=none;" vertex="1" parent="1">
          <mxGeometry x="325" y="520" width="40" height="30" as="geometry" />
        </mxCell>
        <mxCell id="K5uNCjZK_XgeOnh1Dpxe-16" value="12" style="text;html=1;align=center;verticalAlign=middle;resizable=0;points=[];autosize=1;strokeColor=none;fillColor=none;" vertex="1" parent="1">
          <mxGeometry x="325" y="490" width="40" height="30" as="geometry" />
        </mxCell>
        <mxCell id="K5uNCjZK_XgeOnh1Dpxe-17" value="15" style="text;html=1;align=center;verticalAlign=middle;resizable=0;points=[];autosize=1;strokeColor=none;fillColor=none;" vertex="1" parent="1">
          <mxGeometry x="325" y="580" width="40" height="30" as="geometry" />
        </mxCell>
        <mxCell id="K5uNCjZK_XgeOnh1Dpxe-18" value="14" style="text;html=1;align=center;verticalAlign=middle;resizable=0;points=[];autosize=1;strokeColor=none;fillColor=none;" vertex="1" parent="1">
          <mxGeometry x="325" y="550" width="40" height="30" as="geometry" />
        </mxCell>
        <mxCell id="K5uNCjZK_XgeOnh1Dpxe-19" value="f" style="endArrow=classic;html=1;rounded=0;" edge="1" parent="1">
          <mxGeometry width="50" height="50" relative="1" as="geometry">
            <mxPoint x="390" y="690" as="sourcePoint" />
            <mxPoint x="390" y="620" as="targetPoint" />
          </mxGeometry>
        </mxCell>
        <mxCell id="K5uNCjZK_XgeOnh1Dpxe-20" value="ALU_FUN" style="text;html=1;align=center;verticalAlign=middle;resizable=0;points=[];autosize=1;strokeColor=none;fillColor=none;" vertex="1" parent="1">
          <mxGeometry x="350" y="708" width="80" height="30" as="geometry" />
        </mxCell>
        <mxCell id="K5uNCjZK_XgeOnh1Dpxe-21" value="" style="endArrow=classic;html=1;rounded=0;" edge="1" parent="1">
          <mxGeometry width="50" height="50" relative="1" as="geometry">
            <mxPoint x="450" y="340" as="sourcePoint" />
            <mxPoint x="540" y="340" as="targetPoint" />
          </mxGeometry>
        </mxCell>
        <mxCell id="K5uNCjZK_XgeOnh1Dpxe-22" value="" style="verticalLabelPosition=bottom;shadow=0;dashed=0;align=center;html=1;verticalAlign=top;shape=mxgraph.electrical.logic_gates.d_type_flip-flop;" vertex="1" parent="1">
          <mxGeometry x="530" y="300" width="207" height="170" as="geometry" />
        </mxCell>
        <mxCell id="K5uNCjZK_XgeOnh1Dpxe-23" value="ALU_OUT" style="text;html=1;align=center;verticalAlign=middle;resizable=0;points=[];autosize=1;strokeColor=none;fillColor=none;" vertex="1" parent="1">
          <mxGeometry x="730" y="328" width="80" height="30" as="geometry" />
        </mxCell>
        <mxCell id="K5uNCjZK_XgeOnh1Dpxe-24" value="clk" style="text;html=1;align=center;verticalAlign=middle;resizable=0;points=[];autosize=1;strokeColor=none;fillColor=none;" vertex="1" parent="1">
          <mxGeometry x="500" y="410.63" width="40" height="30" as="geometry" />
        </mxCell>
        <mxCell id="K5uNCjZK_XgeOnh1Dpxe-26" value="result" style="text;html=1;align=center;verticalAlign=middle;resizable=0;points=[];autosize=1;strokeColor=none;fillColor=none;" vertex="1" parent="1">
          <mxGeometry x="495" y="305.63" width="50" height="30" as="geometry" />
        </mxCell>
        <mxCell id="K5uNCjZK_XgeOnh1Dpxe-27" value="Adder" style="whiteSpace=wrap;html=1;aspect=fixed;" vertex="1" parent="1">
          <mxGeometry x="7.8799999999999955" y="10.63" width="45" height="45" as="geometry" />
        </mxCell>
        <mxCell id="K5uNCjZK_XgeOnh1Dpxe-28" value="Subtractor" style="whiteSpace=wrap;html=1;aspect=fixed;" vertex="1" parent="1">
          <mxGeometry x="2.8799999999999955" y="70.63" width="55" height="55" as="geometry" />
        </mxCell>
        <mxCell id="K5uNCjZK_XgeOnh1Dpxe-33" style="edgeStyle=orthogonalEdgeStyle;rounded=0;orthogonalLoop=1;jettySize=auto;html=1;entryX=0;entryY=0.25;entryDx=0;entryDy=0;" edge="1" parent="1" source="K5uNCjZK_XgeOnh1Dpxe-30" target="K5uNCjZK_XgeOnh1Dpxe-27">
          <mxGeometry relative="1" as="geometry" />
        </mxCell>
        <mxCell id="K5uNCjZK_XgeOnh1Dpxe-30" value="&lt;font size=&quot;1&quot;&gt;A&lt;/font&gt;" style="text;html=1;align=center;verticalAlign=middle;resizable=0;points=[];autosize=1;strokeColor=none;fillColor=none;" vertex="1" parent="1">
          <mxGeometry x="-70" y="10.63" width="30" height="30" as="geometry" />
        </mxCell>
        <mxCell id="K5uNCjZK_XgeOnh1Dpxe-34" style="edgeStyle=orthogonalEdgeStyle;rounded=0;orthogonalLoop=1;jettySize=auto;html=1;entryX=0;entryY=0.75;entryDx=0;entryDy=0;" edge="1" parent="1" source="K5uNCjZK_XgeOnh1Dpxe-31" target="K5uNCjZK_XgeOnh1Dpxe-27">
          <mxGeometry relative="1" as="geometry" />
        </mxCell>
        <mxCell id="K5uNCjZK_XgeOnh1Dpxe-31" value="B" style="text;html=1;align=center;verticalAlign=middle;resizable=0;points=[];autosize=1;strokeColor=none;fillColor=none;" vertex="1" parent="1">
          <mxGeometry x="-70" y="30.63" width="30" height="30" as="geometry" />
        </mxCell>
        <mxCell id="K5uNCjZK_XgeOnh1Dpxe-35" style="edgeStyle=orthogonalEdgeStyle;rounded=0;orthogonalLoop=1;jettySize=auto;html=1;exitX=1;exitY=0.5;exitDx=0;exitDy=0;entryX=0.054;entryY=0.993;entryDx=0;entryDy=0;entryPerimeter=0;" edge="1" parent="1" source="K5uNCjZK_XgeOnh1Dpxe-27" target="K5uNCjZK_XgeOnh1Dpxe-1">
          <mxGeometry relative="1" as="geometry">
            <Array as="points">
              <mxPoint x="249" y="33" />
              <mxPoint x="249" y="70" />
              <mxPoint x="290" y="70" />
              <mxPoint x="290" y="141" />
            </Array>
          </mxGeometry>
        </mxCell>
        <mxCell id="K5uNCjZK_XgeOnh1Dpxe-40" style="edgeStyle=orthogonalEdgeStyle;rounded=0;orthogonalLoop=1;jettySize=auto;html=1;entryX=0;entryY=0.25;entryDx=0;entryDy=0;" edge="1" parent="1" source="K5uNCjZK_XgeOnh1Dpxe-36" target="K5uNCjZK_XgeOnh1Dpxe-28">
          <mxGeometry relative="1" as="geometry" />
        </mxCell>
        <mxCell id="K5uNCjZK_XgeOnh1Dpxe-36" value="&lt;font size=&quot;1&quot;&gt;A&lt;/font&gt;" style="text;html=1;align=center;verticalAlign=middle;resizable=0;points=[];autosize=1;strokeColor=none;fillColor=none;" vertex="1" parent="1">
          <mxGeometry x="-80" y="70.63" width="30" height="30" as="geometry" />
        </mxCell>
        <mxCell id="K5uNCjZK_XgeOnh1Dpxe-38" value="" style="edgeStyle=orthogonalEdgeStyle;rounded=0;orthogonalLoop=1;jettySize=auto;html=1;" edge="1" parent="1" source="K5uNCjZK_XgeOnh1Dpxe-37" target="K5uNCjZK_XgeOnh1Dpxe-28">
          <mxGeometry relative="1" as="geometry">
            <Array as="points">
              <mxPoint x="-10" y="110.63" />
              <mxPoint x="-10" y="98.63" />
            </Array>
          </mxGeometry>
        </mxCell>
        <mxCell id="K5uNCjZK_XgeOnh1Dpxe-37" value="B" style="text;html=1;align=center;verticalAlign=middle;resizable=0;points=[];autosize=1;strokeColor=none;fillColor=none;" vertex="1" parent="1">
          <mxGeometry x="-80" y="95.63" width="30" height="30" as="geometry" />
        </mxCell>
        <mxCell id="K5uNCjZK_XgeOnh1Dpxe-41" style="edgeStyle=orthogonalEdgeStyle;rounded=0;orthogonalLoop=1;jettySize=auto;html=1;exitX=1;exitY=0.5;exitDx=0;exitDy=0;entryX=0.12;entryY=0.981;entryDx=0;entryDy=0;entryPerimeter=0;" edge="1" parent="1" source="K5uNCjZK_XgeOnh1Dpxe-28" target="K5uNCjZK_XgeOnh1Dpxe-1">
          <mxGeometry relative="1" as="geometry" />
        </mxCell>
        <mxCell id="K5uNCjZK_XgeOnh1Dpxe-42" value="Multiplier" style="whiteSpace=wrap;html=1;aspect=fixed;" vertex="1" parent="1">
          <mxGeometry x="3.8799999999999955" y="130.63" width="55" height="55" as="geometry" />
        </mxCell>
        <mxCell id="K5uNCjZK_XgeOnh1Dpxe-46" style="edgeStyle=orthogonalEdgeStyle;rounded=0;orthogonalLoop=1;jettySize=auto;html=1;entryX=0;entryY=0.25;entryDx=0;entryDy=0;" edge="1" parent="1" target="K5uNCjZK_XgeOnh1Dpxe-42">
          <mxGeometry relative="1" as="geometry">
            <mxPoint x="-60.00000000000023" y="150.68882352941182" as="sourcePoint" />
            <Array as="points">
              <mxPoint x="-55" y="150.63" />
              <mxPoint x="-55" y="144.63" />
            </Array>
          </mxGeometry>
        </mxCell>
        <mxCell id="K5uNCjZK_XgeOnh1Dpxe-44" value="&lt;font size=&quot;1&quot;&gt;A&lt;/font&gt;" style="text;html=1;align=center;verticalAlign=middle;resizable=0;points=[];autosize=1;strokeColor=none;fillColor=none;" vertex="1" parent="1">
          <mxGeometry x="-92.5" y="125.63" width="30" height="30" as="geometry" />
        </mxCell>
        <mxCell id="K5uNCjZK_XgeOnh1Dpxe-47" style="edgeStyle=orthogonalEdgeStyle;rounded=0;orthogonalLoop=1;jettySize=auto;html=1;entryX=0;entryY=0.5;entryDx=0;entryDy=0;" edge="1" parent="1" source="K5uNCjZK_XgeOnh1Dpxe-45" target="K5uNCjZK_XgeOnh1Dpxe-42">
          <mxGeometry relative="1" as="geometry" />
        </mxCell>
        <mxCell id="K5uNCjZK_XgeOnh1Dpxe-45" value="B" style="text;html=1;align=center;verticalAlign=middle;resizable=0;points=[];autosize=1;strokeColor=none;fillColor=none;" vertex="1" parent="1">
          <mxGeometry x="-75" y="155.63" width="30" height="30" as="geometry" />
        </mxCell>
        <mxCell id="K5uNCjZK_XgeOnh1Dpxe-49" value="Divisor" style="whiteSpace=wrap;html=1;aspect=fixed;" vertex="1" parent="1">
          <mxGeometry x="2.8799999999999955" y="195.63" width="55" height="55" as="geometry" />
        </mxCell>
        <mxCell id="K5uNCjZK_XgeOnh1Dpxe-50" style="edgeStyle=orthogonalEdgeStyle;rounded=0;orthogonalLoop=1;jettySize=auto;html=1;exitX=1;exitY=0.5;exitDx=0;exitDy=0;entryX=0.235;entryY=0.993;entryDx=0;entryDy=0;entryPerimeter=0;" edge="1" parent="1" source="K5uNCjZK_XgeOnh1Dpxe-49" target="K5uNCjZK_XgeOnh1Dpxe-1">
          <mxGeometry relative="1" as="geometry" />
        </mxCell>
        <mxCell id="K5uNCjZK_XgeOnh1Dpxe-53" style="edgeStyle=orthogonalEdgeStyle;rounded=0;orthogonalLoop=1;jettySize=auto;html=1;entryX=0;entryY=0.25;entryDx=0;entryDy=0;" edge="1" parent="1" source="K5uNCjZK_XgeOnh1Dpxe-51" target="K5uNCjZK_XgeOnh1Dpxe-49">
          <mxGeometry relative="1" as="geometry" />
        </mxCell>
        <mxCell id="K5uNCjZK_XgeOnh1Dpxe-51" value="&lt;font size=&quot;1&quot;&gt;A&lt;/font&gt;" style="text;html=1;align=center;verticalAlign=middle;resizable=0;points=[];autosize=1;strokeColor=none;fillColor=none;" vertex="1" parent="1">
          <mxGeometry x="-70" y="195.63" width="30" height="30" as="geometry" />
        </mxCell>
        <mxCell id="K5uNCjZK_XgeOnh1Dpxe-54" style="edgeStyle=orthogonalEdgeStyle;rounded=0;orthogonalLoop=1;jettySize=auto;html=1;entryX=0;entryY=0.75;entryDx=0;entryDy=0;" edge="1" parent="1" source="K5uNCjZK_XgeOnh1Dpxe-52" target="K5uNCjZK_XgeOnh1Dpxe-49">
          <mxGeometry relative="1" as="geometry" />
        </mxCell>
        <mxCell id="K5uNCjZK_XgeOnh1Dpxe-52" value="B" style="text;html=1;align=center;verticalAlign=middle;resizable=0;points=[];autosize=1;strokeColor=none;fillColor=none;" vertex="1" parent="1">
          <mxGeometry x="-70" y="225.63" width="30" height="30" as="geometry" />
        </mxCell>
        <mxCell id="K5uNCjZK_XgeOnh1Dpxe-81" style="edgeStyle=orthogonalEdgeStyle;rounded=0;orthogonalLoop=1;jettySize=auto;html=1;exitX=1;exitY=0.5;exitDx=0;exitDy=0;exitPerimeter=0;" edge="1" parent="1" source="K5uNCjZK_XgeOnh1Dpxe-55">
          <mxGeometry relative="1" as="geometry">
            <mxPoint x="310" y="260" as="targetPoint" />
            <Array as="points">
              <mxPoint x="240" y="284" />
              <mxPoint x="240" y="260" />
              <mxPoint x="310" y="260" />
            </Array>
          </mxGeometry>
        </mxCell>
        <mxCell id="K5uNCjZK_XgeOnh1Dpxe-55" value="" style="verticalLabelPosition=bottom;shadow=0;dashed=0;align=center;html=1;verticalAlign=top;shape=mxgraph.electrical.logic_gates.logic_gate;operation=and;" vertex="1" parent="1">
          <mxGeometry x="-2.6200000000000045" y="266.63" width="68" height="34" as="geometry" />
        </mxCell>
        <mxCell id="K5uNCjZK_XgeOnh1Dpxe-56" value="" style="verticalLabelPosition=bottom;shadow=0;dashed=0;align=center;html=1;verticalAlign=top;shape=mxgraph.electrical.logic_gates.logic_gate;operation=or;" vertex="1" parent="1">
          <mxGeometry x="1.8799999999999955" y="308.63" width="67" height="34" as="geometry" />
        </mxCell>
        <mxCell id="K5uNCjZK_XgeOnh1Dpxe-57" value="" style="verticalLabelPosition=bottom;shadow=0;dashed=0;align=center;html=1;verticalAlign=top;shape=mxgraph.electrical.logic_gates.logic_gate;operation=and;negating=1;negSize=0.15;" vertex="1" parent="1">
          <mxGeometry x="1.8799999999999955" y="350.63" width="67" height="30" as="geometry" />
        </mxCell>
        <mxCell id="K5uNCjZK_XgeOnh1Dpxe-58" value="" style="verticalLabelPosition=bottom;shadow=0;dashed=0;align=center;html=1;verticalAlign=top;shape=mxgraph.electrical.logic_gates.logic_gate;operation=or;negating=1;negSize=0.15;" vertex="1" parent="1">
          <mxGeometry x="3.8799999999999955" y="390.63" width="67" height="35" as="geometry" />
        </mxCell>
        <mxCell id="K5uNCjZK_XgeOnh1Dpxe-62" value="" style="verticalLabelPosition=bottom;shadow=0;dashed=0;align=center;html=1;verticalAlign=top;shape=mxgraph.electrical.logic_gates.logic_gate;operation=xor;" vertex="1" parent="1">
          <mxGeometry x="5.8799999999999955" y="441.26" width="63" height="35" as="geometry" />
        </mxCell>
        <mxCell id="K5uNCjZK_XgeOnh1Dpxe-63" value="" style="verticalLabelPosition=bottom;shadow=0;dashed=0;align=center;html=1;verticalAlign=top;shape=mxgraph.electrical.logic_gates.logic_gate;operation=xor;negating=1;negSize=0.15;" vertex="1" parent="1">
          <mxGeometry x="-1.6200000000000045" y="490.63" width="71.62" height="30" as="geometry" />
        </mxCell>
        <mxCell id="K5uNCjZK_XgeOnh1Dpxe-64" value="" style="shape=trapezoid;perimeter=trapezoidPerimeter;whiteSpace=wrap;html=1;fixedSize=1;rotation=90;" vertex="1" parent="1">
          <mxGeometry x="-5" y="545.63" width="60" height="35" as="geometry" />
        </mxCell>
        <mxCell id="K5uNCjZK_XgeOnh1Dpxe-65" value="A" style="text;html=1;align=center;verticalAlign=middle;resizable=0;points=[];autosize=1;strokeColor=none;fillColor=none;" vertex="1" parent="1">
          <mxGeometry x="-45" y="258.63" width="30" height="30" as="geometry" />
        </mxCell>
        <mxCell id="K5uNCjZK_XgeOnh1Dpxe-67" value="B" style="text;html=1;align=center;verticalAlign=middle;resizable=0;points=[];autosize=1;strokeColor=none;fillColor=none;" vertex="1" parent="1">
          <mxGeometry x="-45" y="278.63" width="30" height="30" as="geometry" />
        </mxCell>
        <mxCell id="K5uNCjZK_XgeOnh1Dpxe-69" value="A" style="text;html=1;align=center;verticalAlign=middle;resizable=0;points=[];autosize=1;strokeColor=none;fillColor=none;" vertex="1" parent="1">
          <mxGeometry x="-40" y="300.63" width="30" height="30" as="geometry" />
        </mxCell>
        <mxCell id="K5uNCjZK_XgeOnh1Dpxe-70" value="B" style="text;html=1;align=center;verticalAlign=middle;resizable=0;points=[];autosize=1;strokeColor=none;fillColor=none;" vertex="1" parent="1">
          <mxGeometry x="-35" y="318.63" width="30" height="30" as="geometry" />
        </mxCell>
        <mxCell id="K5uNCjZK_XgeOnh1Dpxe-71" value="A" style="text;html=1;align=center;verticalAlign=middle;resizable=0;points=[];autosize=1;strokeColor=none;fillColor=none;" vertex="1" parent="1">
          <mxGeometry x="-35" y="342.63" width="30" height="30" as="geometry" />
        </mxCell>
        <mxCell id="K5uNCjZK_XgeOnh1Dpxe-74" value="B" style="text;html=1;align=center;verticalAlign=middle;resizable=0;points=[];autosize=1;strokeColor=none;fillColor=none;" vertex="1" parent="1">
          <mxGeometry x="-35" y="358.63" width="30" height="30" as="geometry" />
        </mxCell>
        <mxCell id="K5uNCjZK_XgeOnh1Dpxe-75" value="A" style="text;html=1;align=center;verticalAlign=middle;resizable=0;points=[];autosize=1;strokeColor=none;fillColor=none;" vertex="1" parent="1">
          <mxGeometry x="-24.120000000000005" y="381.26" width="30" height="30" as="geometry" />
        </mxCell>
        <mxCell id="K5uNCjZK_XgeOnh1Dpxe-76" value="B" style="text;html=1;align=center;verticalAlign=middle;resizable=0;points=[];autosize=1;strokeColor=none;fillColor=none;" vertex="1" parent="1">
          <mxGeometry x="-24.120000000000005" y="400.63" width="30" height="30" as="geometry" />
        </mxCell>
        <mxCell id="K5uNCjZK_XgeOnh1Dpxe-77" value="A" style="text;html=1;align=center;verticalAlign=middle;resizable=0;points=[];autosize=1;strokeColor=none;fillColor=none;" vertex="1" parent="1">
          <mxGeometry x="-24.120000000000005" y="430.63" width="30" height="30" as="geometry" />
        </mxCell>
        <mxCell id="K5uNCjZK_XgeOnh1Dpxe-78" value="B" style="text;html=1;align=center;verticalAlign=middle;resizable=0;points=[];autosize=1;strokeColor=none;fillColor=none;" vertex="1" parent="1">
          <mxGeometry x="-22.120000000000005" y="446.26" width="30" height="30" as="geometry" />
        </mxCell>
        <mxCell id="K5uNCjZK_XgeOnh1Dpxe-79" value="A" style="text;html=1;align=center;verticalAlign=middle;resizable=0;points=[];autosize=1;strokeColor=none;fillColor=none;" vertex="1" parent="1">
          <mxGeometry x="-28.120000000000005" y="480.63" width="30" height="30" as="geometry" />
        </mxCell>
        <mxCell id="K5uNCjZK_XgeOnh1Dpxe-80" value="B" style="text;html=1;align=center;verticalAlign=middle;resizable=0;points=[];autosize=1;strokeColor=none;fillColor=none;" vertex="1" parent="1">
          <mxGeometry x="-28.120000000000005" y="500.63" width="30" height="30" as="geometry" />
        </mxCell>
        <mxCell id="K5uNCjZK_XgeOnh1Dpxe-82" style="edgeStyle=orthogonalEdgeStyle;rounded=0;orthogonalLoop=1;jettySize=auto;html=1;exitX=1;exitY=0.5;exitDx=0;exitDy=0;exitPerimeter=0;entryX=0.35;entryY=0.993;entryDx=0;entryDy=0;entryPerimeter=0;" edge="1" parent="1" source="K5uNCjZK_XgeOnh1Dpxe-56" target="K5uNCjZK_XgeOnh1Dpxe-1">
          <mxGeometry relative="1" as="geometry">
            <Array as="points">
              <mxPoint x="240" y="325" />
              <mxPoint x="240" y="295" />
            </Array>
          </mxGeometry>
        </mxCell>
        <mxCell id="K5uNCjZK_XgeOnh1Dpxe-83" style="edgeStyle=orthogonalEdgeStyle;rounded=0;orthogonalLoop=1;jettySize=auto;html=1;exitX=1;exitY=0.5;exitDx=0;exitDy=0;exitPerimeter=0;entryX=0.408;entryY=0.963;entryDx=0;entryDy=0;entryPerimeter=0;" edge="1" parent="1" source="K5uNCjZK_XgeOnh1Dpxe-57" target="K5uNCjZK_XgeOnh1Dpxe-1">
          <mxGeometry relative="1" as="geometry">
            <Array as="points">
              <mxPoint x="250" y="365" />
              <mxPoint x="250" y="325" />
            </Array>
          </mxGeometry>
        </mxCell>
        <mxCell id="K5uNCjZK_XgeOnh1Dpxe-84" style="edgeStyle=orthogonalEdgeStyle;rounded=0;orthogonalLoop=1;jettySize=auto;html=1;exitX=1;exitY=0.5;exitDx=0;exitDy=0;exitPerimeter=0;entryX=0.465;entryY=0.999;entryDx=0;entryDy=0;entryPerimeter=0;" edge="1" parent="1" source="K5uNCjZK_XgeOnh1Dpxe-58" target="K5uNCjZK_XgeOnh1Dpxe-1">
          <mxGeometry relative="1" as="geometry">
            <Array as="points">
              <mxPoint x="260" y="408" />
              <mxPoint x="260" y="355" />
            </Array>
          </mxGeometry>
        </mxCell>
        <mxCell id="K5uNCjZK_XgeOnh1Dpxe-85" style="edgeStyle=orthogonalEdgeStyle;rounded=0;orthogonalLoop=1;jettySize=auto;html=1;exitX=1;exitY=0.5;exitDx=0;exitDy=0;exitPerimeter=0;entryX=0.525;entryY=0.975;entryDx=0;entryDy=0;entryPerimeter=0;" edge="1" parent="1" source="K5uNCjZK_XgeOnh1Dpxe-62" target="K5uNCjZK_XgeOnh1Dpxe-1">
          <mxGeometry relative="1" as="geometry">
            <Array as="points">
              <mxPoint x="159" y="450" />
              <mxPoint x="180" y="450" />
              <mxPoint x="180" y="420" />
              <mxPoint x="270" y="420" />
              <mxPoint x="270" y="386" />
            </Array>
          </mxGeometry>
        </mxCell>
        <mxCell id="K5uNCjZK_XgeOnh1Dpxe-86" style="edgeStyle=orthogonalEdgeStyle;rounded=0;orthogonalLoop=1;jettySize=auto;html=1;exitX=1;exitY=0.5;exitDx=0;exitDy=0;exitPerimeter=0;entryX=0.59;entryY=0.963;entryDx=0;entryDy=0;entryPerimeter=0;" edge="1" parent="1" source="K5uNCjZK_XgeOnh1Dpxe-63" target="K5uNCjZK_XgeOnh1Dpxe-1">
          <mxGeometry relative="1" as="geometry">
            <Array as="points">
              <mxPoint x="190" y="506" />
              <mxPoint x="190" y="440" />
              <mxPoint x="280" y="440" />
              <mxPoint x="280" y="420" />
            </Array>
          </mxGeometry>
        </mxCell>
        <mxCell id="K5uNCjZK_XgeOnh1Dpxe-87" style="edgeStyle=orthogonalEdgeStyle;rounded=0;orthogonalLoop=1;jettySize=auto;html=1;exitX=0.5;exitY=0;exitDx=0;exitDy=0;entryX=0.647;entryY=0.963;entryDx=0;entryDy=0;entryPerimeter=0;" edge="1" parent="1" source="K5uNCjZK_XgeOnh1Dpxe-64" target="K5uNCjZK_XgeOnh1Dpxe-1">
          <mxGeometry relative="1" as="geometry">
            <Array as="points">
              <mxPoint x="173" y="564" />
              <mxPoint x="173" y="520" />
              <mxPoint x="220" y="520" />
              <mxPoint x="220" y="450" />
            </Array>
          </mxGeometry>
        </mxCell>
        <mxCell id="K5uNCjZK_XgeOnh1Dpxe-88" value="" style="endArrow=classic;html=1;rounded=0;" edge="1" parent="1">
          <mxGeometry width="50" height="50" relative="1" as="geometry">
            <mxPoint x="30" y="610.63" as="sourcePoint" />
            <mxPoint x="30" y="580.63" as="targetPoint" />
          </mxGeometry>
        </mxCell>
        <mxCell id="K5uNCjZK_XgeOnh1Dpxe-89" value="A==B" style="text;html=1;align=center;verticalAlign=middle;resizable=0;points=[];autosize=1;strokeColor=none;fillColor=none;" vertex="1" parent="1">
          <mxGeometry x="5" y="608.63" width="50" height="30" as="geometry" />
        </mxCell>
        <mxCell id="K5uNCjZK_XgeOnh1Dpxe-90" value="0" style="text;html=1;align=center;verticalAlign=middle;resizable=0;points=[];autosize=1;strokeColor=none;fillColor=none;" vertex="1" parent="1">
          <mxGeometry x="-1.6200000000000045" y="535.63" width="30" height="30" as="geometry" />
        </mxCell>
        <mxCell id="K5uNCjZK_XgeOnh1Dpxe-91" value="1" style="text;html=1;align=center;verticalAlign=middle;resizable=0;points=[];autosize=1;strokeColor=none;fillColor=none;" vertex="1" parent="1">
          <mxGeometry x="-1.6200000000000045" y="565.63" width="30" height="30" as="geometry" />
        </mxCell>
        <mxCell id="K5uNCjZK_XgeOnh1Dpxe-92" value="" style="endArrow=classic;html=1;rounded=0;" edge="1" parent="1">
          <mxGeometry width="50" height="50" relative="1" as="geometry">
            <mxPoint x="-20" y="550.63" as="sourcePoint" />
            <mxPoint x="10" y="550.63" as="targetPoint" />
          </mxGeometry>
        </mxCell>
        <mxCell id="K5uNCjZK_XgeOnh1Dpxe-93" value="0" style="text;html=1;align=center;verticalAlign=middle;resizable=0;points=[];autosize=1;strokeColor=none;fillColor=none;" vertex="1" parent="1">
          <mxGeometry x="-45" y="535.63" width="30" height="30" as="geometry" />
        </mxCell>
        <mxCell id="K5uNCjZK_XgeOnh1Dpxe-98" style="edgeStyle=orthogonalEdgeStyle;rounded=0;orthogonalLoop=1;jettySize=auto;html=1;" edge="1" parent="1" source="K5uNCjZK_XgeOnh1Dpxe-94" target="K5uNCjZK_XgeOnh1Dpxe-91">
          <mxGeometry relative="1" as="geometry" />
        </mxCell>
        <mxCell id="K5uNCjZK_XgeOnh1Dpxe-94" value="1" style="text;html=1;align=center;verticalAlign=middle;resizable=0;points=[];autosize=1;strokeColor=none;fillColor=none;" vertex="1" parent="1">
          <mxGeometry x="-45" y="565.63" width="30" height="30" as="geometry" />
        </mxCell>
        <mxCell id="K5uNCjZK_XgeOnh1Dpxe-99" value="" style="shape=trapezoid;perimeter=trapezoidPerimeter;whiteSpace=wrap;html=1;fixedSize=1;rotation=90;" vertex="1" parent="1">
          <mxGeometry x="-2.1200000000000045" y="648.63" width="60" height="35" as="geometry" />
        </mxCell>
        <mxCell id="K5uNCjZK_XgeOnh1Dpxe-100" value="" style="endArrow=classic;html=1;rounded=0;" edge="1" parent="1">
          <mxGeometry width="50" height="50" relative="1" as="geometry">
            <mxPoint x="32.879999999999995" y="713.63" as="sourcePoint" />
            <mxPoint x="32.879999999999995" y="683.63" as="targetPoint" />
          </mxGeometry>
        </mxCell>
        <mxCell id="K5uNCjZK_XgeOnh1Dpxe-101" value="A&amp;gt;B" style="text;html=1;align=center;verticalAlign=middle;resizable=0;points=[];autosize=1;strokeColor=none;fillColor=none;" vertex="1" parent="1">
          <mxGeometry x="7.8799999999999955" y="711.63" width="50" height="30" as="geometry" />
        </mxCell>
        <mxCell id="K5uNCjZK_XgeOnh1Dpxe-102" value="0" style="text;html=1;align=center;verticalAlign=middle;resizable=0;points=[];autosize=1;strokeColor=none;fillColor=none;" vertex="1" parent="1">
          <mxGeometry x="1.259999999999991" y="638.63" width="30" height="30" as="geometry" />
        </mxCell>
        <mxCell id="K5uNCjZK_XgeOnh1Dpxe-103" value="1" style="text;html=1;align=center;verticalAlign=middle;resizable=0;points=[];autosize=1;strokeColor=none;fillColor=none;" vertex="1" parent="1">
          <mxGeometry x="1.259999999999991" y="668.63" width="30" height="30" as="geometry" />
        </mxCell>
        <mxCell id="K5uNCjZK_XgeOnh1Dpxe-104" value="" style="endArrow=classic;html=1;rounded=0;" edge="1" parent="1">
          <mxGeometry width="50" height="50" relative="1" as="geometry">
            <mxPoint x="-17.120000000000005" y="653.63" as="sourcePoint" />
            <mxPoint x="12.879999999999995" y="653.63" as="targetPoint" />
          </mxGeometry>
        </mxCell>
        <mxCell id="K5uNCjZK_XgeOnh1Dpxe-105" value="0" style="text;html=1;align=center;verticalAlign=middle;resizable=0;points=[];autosize=1;strokeColor=none;fillColor=none;" vertex="1" parent="1">
          <mxGeometry x="-42.12" y="638.63" width="30" height="30" as="geometry" />
        </mxCell>
        <mxCell id="K5uNCjZK_XgeOnh1Dpxe-106" style="edgeStyle=orthogonalEdgeStyle;rounded=0;orthogonalLoop=1;jettySize=auto;html=1;" edge="1" parent="1" source="K5uNCjZK_XgeOnh1Dpxe-107" target="K5uNCjZK_XgeOnh1Dpxe-103">
          <mxGeometry relative="1" as="geometry" />
        </mxCell>
        <mxCell id="K5uNCjZK_XgeOnh1Dpxe-107" value="2" style="text;html=1;align=center;verticalAlign=middle;resizable=0;points=[];autosize=1;strokeColor=none;fillColor=none;" vertex="1" parent="1">
          <mxGeometry x="-42.12" y="668.63" width="30" height="30" as="geometry" />
        </mxCell>
        <mxCell id="K5uNCjZK_XgeOnh1Dpxe-120" style="edgeStyle=orthogonalEdgeStyle;rounded=0;orthogonalLoop=1;jettySize=auto;html=1;exitX=0.5;exitY=0;exitDx=0;exitDy=0;" edge="1" parent="1" source="K5uNCjZK_XgeOnh1Dpxe-108">
          <mxGeometry relative="1" as="geometry">
            <mxPoint x="310" y="500" as="targetPoint" />
            <Array as="points">
              <mxPoint x="70" y="765" />
              <mxPoint x="70" y="640" />
              <mxPoint x="240" y="640" />
              <mxPoint x="240" y="500" />
            </Array>
          </mxGeometry>
        </mxCell>
        <mxCell id="K5uNCjZK_XgeOnh1Dpxe-108" value="" style="shape=trapezoid;perimeter=trapezoidPerimeter;whiteSpace=wrap;html=1;fixedSize=1;rotation=90;" vertex="1" parent="1">
          <mxGeometry x="3.3799999999999955" y="747.63" width="60" height="35" as="geometry" />
        </mxCell>
        <mxCell id="K5uNCjZK_XgeOnh1Dpxe-109" value="" style="endArrow=classic;html=1;rounded=0;" edge="1" parent="1">
          <mxGeometry width="50" height="50" relative="1" as="geometry">
            <mxPoint x="38.379999999999995" y="812.63" as="sourcePoint" />
            <mxPoint x="38.379999999999995" y="782.63" as="targetPoint" />
          </mxGeometry>
        </mxCell>
        <mxCell id="K5uNCjZK_XgeOnh1Dpxe-110" value="A&amp;lt;B" style="text;html=1;align=center;verticalAlign=middle;resizable=0;points=[];autosize=1;strokeColor=none;fillColor=none;" vertex="1" parent="1">
          <mxGeometry x="13.379999999999995" y="810.63" width="50" height="30" as="geometry" />
        </mxCell>
        <mxCell id="K5uNCjZK_XgeOnh1Dpxe-111" value="0" style="text;html=1;align=center;verticalAlign=middle;resizable=0;points=[];autosize=1;strokeColor=none;fillColor=none;" vertex="1" parent="1">
          <mxGeometry x="6.759999999999991" y="737.63" width="30" height="30" as="geometry" />
        </mxCell>
        <mxCell id="K5uNCjZK_XgeOnh1Dpxe-112" value="1" style="text;html=1;align=center;verticalAlign=middle;resizable=0;points=[];autosize=1;strokeColor=none;fillColor=none;" vertex="1" parent="1">
          <mxGeometry x="6.759999999999991" y="767.63" width="30" height="30" as="geometry" />
        </mxCell>
        <mxCell id="K5uNCjZK_XgeOnh1Dpxe-113" value="" style="endArrow=classic;html=1;rounded=0;" edge="1" parent="1">
          <mxGeometry width="50" height="50" relative="1" as="geometry">
            <mxPoint x="-11.620000000000005" y="752.63" as="sourcePoint" />
            <mxPoint x="18.379999999999995" y="752.63" as="targetPoint" />
          </mxGeometry>
        </mxCell>
        <mxCell id="K5uNCjZK_XgeOnh1Dpxe-114" value="0" style="text;html=1;align=center;verticalAlign=middle;resizable=0;points=[];autosize=1;strokeColor=none;fillColor=none;" vertex="1" parent="1">
          <mxGeometry x="-36.62" y="737.63" width="30" height="30" as="geometry" />
        </mxCell>
        <mxCell id="K5uNCjZK_XgeOnh1Dpxe-115" style="edgeStyle=orthogonalEdgeStyle;rounded=0;orthogonalLoop=1;jettySize=auto;html=1;" edge="1" parent="1" source="K5uNCjZK_XgeOnh1Dpxe-116" target="K5uNCjZK_XgeOnh1Dpxe-112">
          <mxGeometry relative="1" as="geometry" />
        </mxCell>
        <mxCell id="K5uNCjZK_XgeOnh1Dpxe-116" value="3" style="text;html=1;align=center;verticalAlign=middle;resizable=0;points=[];autosize=1;strokeColor=none;fillColor=none;" vertex="1" parent="1">
          <mxGeometry x="-36.62" y="767.63" width="30" height="30" as="geometry" />
        </mxCell>
        <mxCell id="K5uNCjZK_XgeOnh1Dpxe-121" style="edgeStyle=orthogonalEdgeStyle;rounded=0;orthogonalLoop=1;jettySize=auto;html=1;exitX=0.5;exitY=0;exitDx=0;exitDy=0;entryX=0.694;entryY=0.993;entryDx=0;entryDy=0;entryPerimeter=0;" edge="1" parent="1" source="K5uNCjZK_XgeOnh1Dpxe-99" target="K5uNCjZK_XgeOnh1Dpxe-1">
          <mxGeometry relative="1" as="geometry">
            <Array as="points">
              <mxPoint x="45" y="600" />
              <mxPoint x="230" y="600" />
              <mxPoint x="230" y="474" />
            </Array>
          </mxGeometry>
        </mxCell>
        <mxCell id="K5uNCjZK_XgeOnh1Dpxe-125" style="edgeStyle=orthogonalEdgeStyle;rounded=0;orthogonalLoop=1;jettySize=auto;html=1;entryX=0;entryY=0.5;entryDx=0;entryDy=0;" edge="1" parent="1" target="K5uNCjZK_XgeOnh1Dpxe-123">
          <mxGeometry relative="1" as="geometry">
            <mxPoint x="-32.5" y="930.0000000000001" as="sourcePoint" />
          </mxGeometry>
        </mxCell>
        <mxCell id="K5uNCjZK_XgeOnh1Dpxe-122" value="A" style="text;html=1;align=center;verticalAlign=middle;resizable=0;points=[];autosize=1;strokeColor=none;fillColor=none;" vertex="1" parent="1">
          <mxGeometry x="-62.5" y="915" width="30" height="30" as="geometry" />
        </mxCell>
        <mxCell id="K5uNCjZK_XgeOnh1Dpxe-123" value="Shift to right" style="whiteSpace=wrap;html=1;aspect=fixed;" vertex="1" parent="1">
          <mxGeometry x="7.5" y="890" width="80" height="80" as="geometry" />
        </mxCell>
        <mxCell id="K5uNCjZK_XgeOnh1Dpxe-124" value="Shift to left" style="whiteSpace=wrap;html=1;aspect=fixed;" vertex="1" parent="1">
          <mxGeometry x="12.499999999999991" y="990" width="80" height="80" as="geometry" />
        </mxCell>
        <mxCell id="K5uNCjZK_XgeOnh1Dpxe-129" style="edgeStyle=orthogonalEdgeStyle;rounded=0;orthogonalLoop=1;jettySize=auto;html=1;entryX=0;entryY=0.5;entryDx=0;entryDy=0;" edge="1" parent="1" source="K5uNCjZK_XgeOnh1Dpxe-128" target="K5uNCjZK_XgeOnh1Dpxe-124">
          <mxGeometry relative="1" as="geometry" />
        </mxCell>
        <mxCell id="K5uNCjZK_XgeOnh1Dpxe-128" value="A" style="text;html=1;align=center;verticalAlign=middle;resizable=0;points=[];autosize=1;strokeColor=none;fillColor=none;" vertex="1" parent="1">
          <mxGeometry x="-62.50000000000001" y="1020" width="30" height="30" as="geometry" />
        </mxCell>
        <mxCell id="K5uNCjZK_XgeOnh1Dpxe-131" style="edgeStyle=orthogonalEdgeStyle;rounded=0;orthogonalLoop=1;jettySize=auto;html=1;exitX=1;exitY=0.5;exitDx=0;exitDy=0;entryX=0.806;entryY=1.007;entryDx=0;entryDy=0;entryPerimeter=0;" edge="1" parent="1" source="K5uNCjZK_XgeOnh1Dpxe-123" target="K5uNCjZK_XgeOnh1Dpxe-1">
          <mxGeometry relative="1" as="geometry">
            <Array as="points">
              <mxPoint x="87" y="680" />
              <mxPoint x="250" y="680" />
              <mxPoint x="250" y="533" />
            </Array>
          </mxGeometry>
        </mxCell>
        <mxCell id="K5uNCjZK_XgeOnh1Dpxe-132" style="edgeStyle=orthogonalEdgeStyle;rounded=0;orthogonalLoop=1;jettySize=auto;html=1;exitX=1;exitY=0.5;exitDx=0;exitDy=0;entryX=0.868;entryY=0.993;entryDx=0;entryDy=0;entryPerimeter=0;" edge="1" parent="1" source="K5uNCjZK_XgeOnh1Dpxe-124" target="K5uNCjZK_XgeOnh1Dpxe-1">
          <mxGeometry relative="1" as="geometry">
            <Array as="points">
              <mxPoint x="110" y="1030" />
              <mxPoint x="110" y="870" />
              <mxPoint x="260" y="870" />
              <mxPoint x="260" y="565" />
            </Array>
          </mxGeometry>
        </mxCell>
        <mxCell id="K5uNCjZK_XgeOnh1Dpxe-133" value="0" style="text;html=1;align=center;verticalAlign=middle;resizable=0;points=[];autosize=1;strokeColor=none;fillColor=none;" vertex="1" parent="1">
          <mxGeometry x="260" y="580.63" width="30" height="30" as="geometry" />
        </mxCell>
        <mxCell id="K5uNCjZK_XgeOnh1Dpxe-135" style="edgeStyle=orthogonalEdgeStyle;rounded=0;orthogonalLoop=1;jettySize=auto;html=1;entryX=-0.085;entryY=0.686;entryDx=0;entryDy=0;entryPerimeter=0;" edge="1" parent="1" source="K5uNCjZK_XgeOnh1Dpxe-133" target="K5uNCjZK_XgeOnh1Dpxe-17">
          <mxGeometry relative="1" as="geometry" />
        </mxCell>
        <mxCell id="K5uNCjZK_XgeOnh1Dpxe-136" value="&lt;font style=&quot;font-size: 20px;&quot;&gt;&lt;b&gt;Flags&lt;/b&gt;&lt;/font&gt;" style="text;html=1;align=center;verticalAlign=middle;resizable=0;points=[];autosize=1;strokeColor=none;fillColor=none;" vertex="1" parent="1">
          <mxGeometry x="1320" y="77.31000000000004" width="80" height="40" as="geometry" />
        </mxCell>
        <mxCell id="K5uNCjZK_XgeOnh1Dpxe-138" style="edgeStyle=orthogonalEdgeStyle;rounded=0;orthogonalLoop=1;jettySize=auto;html=1;exitX=1;exitY=0.5;exitDx=0;exitDy=0;entryX=0.178;entryY=0.965;entryDx=0;entryDy=0;entryPerimeter=0;" edge="1" parent="1" source="K5uNCjZK_XgeOnh1Dpxe-42" target="K5uNCjZK_XgeOnh1Dpxe-1">
          <mxGeometry relative="1" as="geometry">
            <Array as="points">
              <mxPoint x="160" y="158" />
              <mxPoint x="160" y="205" />
            </Array>
          </mxGeometry>
        </mxCell>
        <mxCell id="K5uNCjZK_XgeOnh1Dpxe-154" style="edgeStyle=orthogonalEdgeStyle;rounded=0;orthogonalLoop=1;jettySize=auto;html=1;" edge="1" parent="1" source="K5uNCjZK_XgeOnh1Dpxe-143">
          <mxGeometry relative="1" as="geometry">
            <mxPoint x="1280.91" y="822.86" as="targetPoint" />
          </mxGeometry>
        </mxCell>
        <mxCell id="K5uNCjZK_XgeOnh1Dpxe-143" value="" style="shape=trapezoid;perimeter=trapezoidPerimeter;whiteSpace=wrap;html=1;fixedSize=1;rotation=90;" vertex="1" parent="1">
          <mxGeometry x="1140.91" y="792.86" width="120" height="60" as="geometry" />
        </mxCell>
        <mxCell id="K5uNCjZK_XgeOnh1Dpxe-147" style="edgeStyle=orthogonalEdgeStyle;rounded=0;orthogonalLoop=1;jettySize=auto;html=1;entryX=1;entryY=0.5;entryDx=0;entryDy=0;" edge="1" parent="1" source="K5uNCjZK_XgeOnh1Dpxe-146" target="K5uNCjZK_XgeOnh1Dpxe-143">
          <mxGeometry relative="1" as="geometry" />
        </mxCell>
        <mxCell id="K5uNCjZK_XgeOnh1Dpxe-146" value="result&amp;gt;255" style="text;html=1;align=center;verticalAlign=middle;resizable=0;points=[];autosize=1;strokeColor=none;fillColor=none;" vertex="1" parent="1">
          <mxGeometry x="1160.91" y="917.4900000000001" width="80" height="30" as="geometry" />
        </mxCell>
        <mxCell id="K5uNCjZK_XgeOnh1Dpxe-148" value="1" style="text;html=1;align=center;verticalAlign=middle;resizable=0;points=[];autosize=1;strokeColor=none;fillColor=none;" vertex="1" parent="1">
          <mxGeometry x="1170.91" y="841.86" width="30" height="30" as="geometry" />
        </mxCell>
        <mxCell id="K5uNCjZK_XgeOnh1Dpxe-149" value="0" style="text;html=1;align=center;verticalAlign=middle;resizable=0;points=[];autosize=1;strokeColor=none;fillColor=none;" vertex="1" parent="1">
          <mxGeometry x="1170.91" y="778.6700000000002" width="30" height="30" as="geometry" />
        </mxCell>
        <mxCell id="K5uNCjZK_XgeOnh1Dpxe-150" value="0" style="text;html=1;align=center;verticalAlign=middle;resizable=0;points=[];autosize=1;strokeColor=none;fillColor=none;" vertex="1" parent="1">
          <mxGeometry x="1105.91" y="779.86" width="30" height="30" as="geometry" />
        </mxCell>
        <mxCell id="K5uNCjZK_XgeOnh1Dpxe-151" value="1" style="text;html=1;align=center;verticalAlign=middle;resizable=0;points=[];autosize=1;strokeColor=none;fillColor=none;" vertex="1" parent="1">
          <mxGeometry x="1105.91" y="847.4900000000001" width="30" height="30" as="geometry" />
        </mxCell>
        <mxCell id="K5uNCjZK_XgeOnh1Dpxe-152" style="edgeStyle=orthogonalEdgeStyle;rounded=0;orthogonalLoop=1;jettySize=auto;html=1;entryX=-0.045;entryY=0.426;entryDx=0;entryDy=0;entryPerimeter=0;" edge="1" parent="1" source="K5uNCjZK_XgeOnh1Dpxe-150" target="K5uNCjZK_XgeOnh1Dpxe-149">
          <mxGeometry relative="1" as="geometry" />
        </mxCell>
        <mxCell id="K5uNCjZK_XgeOnh1Dpxe-153" style="edgeStyle=orthogonalEdgeStyle;rounded=0;orthogonalLoop=1;jettySize=auto;html=1;entryX=0.049;entryY=0.612;entryDx=0;entryDy=0;entryPerimeter=0;" edge="1" parent="1" source="K5uNCjZK_XgeOnh1Dpxe-151" target="K5uNCjZK_XgeOnh1Dpxe-148">
          <mxGeometry relative="1" as="geometry" />
        </mxCell>
        <mxCell id="K5uNCjZK_XgeOnh1Dpxe-155" value="carry" style="text;html=1;align=center;verticalAlign=middle;resizable=0;points=[];autosize=1;strokeColor=none;fillColor=none;" vertex="1" parent="1">
          <mxGeometry x="1280.91" y="809.86" width="50" height="30" as="geometry" />
        </mxCell>
        <mxCell id="K5uNCjZK_XgeOnh1Dpxe-156" value="" style="whiteSpace=wrap;html=1;aspect=fixed;fillColor=none;" vertex="1" parent="1">
          <mxGeometry x="1075.91" y="689.3100000000001" width="258.18" height="258.18" as="geometry" />
        </mxCell>
        <mxCell id="K5uNCjZK_XgeOnh1Dpxe-157" value="Addition" style="text;html=1;align=center;verticalAlign=middle;resizable=0;points=[];autosize=1;strokeColor=none;fillColor=none;" vertex="1" parent="1">
          <mxGeometry x="1160.91" y="704.0300000000001" width="70" height="30" as="geometry" />
        </mxCell>
        <mxCell id="K5uNCjZK_XgeOnh1Dpxe-181" style="edgeStyle=orthogonalEdgeStyle;rounded=0;orthogonalLoop=1;jettySize=auto;html=1;exitX=0.5;exitY=0;exitDx=0;exitDy=0;" edge="1" parent="1" source="K5uNCjZK_XgeOnh1Dpxe-171">
          <mxGeometry relative="1" as="geometry">
            <mxPoint x="1646" y="798.7388235294117" as="targetPoint" />
          </mxGeometry>
        </mxCell>
        <mxCell id="K5uNCjZK_XgeOnh1Dpxe-171" value="" style="shape=trapezoid;perimeter=trapezoidPerimeter;whiteSpace=wrap;html=1;fixedSize=1;rotation=90;" vertex="1" parent="1">
          <mxGeometry x="1531" y="769.3100000000001" width="120" height="60" as="geometry" />
        </mxCell>
        <mxCell id="K5uNCjZK_XgeOnh1Dpxe-173" style="edgeStyle=orthogonalEdgeStyle;rounded=0;orthogonalLoop=1;jettySize=auto;html=1;entryX=1;entryY=0.5;entryDx=0;entryDy=0;" edge="1" parent="1" source="K5uNCjZK_XgeOnh1Dpxe-172" target="K5uNCjZK_XgeOnh1Dpxe-171">
          <mxGeometry relative="1" as="geometry" />
        </mxCell>
        <mxCell id="K5uNCjZK_XgeOnh1Dpxe-172" value="A&amp;lt;B" style="text;html=1;align=center;verticalAlign=middle;resizable=0;points=[];autosize=1;strokeColor=none;fillColor=none;" vertex="1" parent="1">
          <mxGeometry x="1571" y="889.3100000000001" width="50" height="30" as="geometry" />
        </mxCell>
        <mxCell id="K5uNCjZK_XgeOnh1Dpxe-176" style="edgeStyle=orthogonalEdgeStyle;rounded=0;orthogonalLoop=1;jettySize=auto;html=1;entryX=0.75;entryY=1;entryDx=0;entryDy=0;" edge="1" parent="1" source="K5uNCjZK_XgeOnh1Dpxe-174" target="K5uNCjZK_XgeOnh1Dpxe-171">
          <mxGeometry relative="1" as="geometry" />
        </mxCell>
        <mxCell id="K5uNCjZK_XgeOnh1Dpxe-174" value="1" style="text;html=1;align=center;verticalAlign=middle;resizable=0;points=[];autosize=1;strokeColor=none;fillColor=none;" vertex="1" parent="1">
          <mxGeometry x="1511" y="821.68" width="30" height="30" as="geometry" />
        </mxCell>
        <mxCell id="K5uNCjZK_XgeOnh1Dpxe-178" style="edgeStyle=orthogonalEdgeStyle;rounded=0;orthogonalLoop=1;jettySize=auto;html=1;entryX=0.25;entryY=1;entryDx=0;entryDy=0;" edge="1" parent="1" source="K5uNCjZK_XgeOnh1Dpxe-177" target="K5uNCjZK_XgeOnh1Dpxe-171">
          <mxGeometry relative="1" as="geometry" />
        </mxCell>
        <mxCell id="K5uNCjZK_XgeOnh1Dpxe-177" value="0" style="text;html=1;align=center;verticalAlign=middle;resizable=0;points=[];autosize=1;strokeColor=none;fillColor=none;" vertex="1" parent="1">
          <mxGeometry x="1511" y="751.68" width="30" height="30" as="geometry" />
        </mxCell>
        <mxCell id="K5uNCjZK_XgeOnh1Dpxe-179" value="1" style="text;html=1;align=center;verticalAlign=middle;resizable=0;points=[];autosize=1;strokeColor=none;fillColor=none;" vertex="1" parent="1">
          <mxGeometry x="1561" y="813.68" width="30" height="30" as="geometry" />
        </mxCell>
        <mxCell id="K5uNCjZK_XgeOnh1Dpxe-180" value="0" style="text;html=1;align=center;verticalAlign=middle;resizable=0;points=[];autosize=1;strokeColor=none;fillColor=none;" vertex="1" parent="1">
          <mxGeometry x="1561" y="751.68" width="30" height="30" as="geometry" />
        </mxCell>
        <mxCell id="K5uNCjZK_XgeOnh1Dpxe-182" value="Burrow" style="text;html=1;align=center;verticalAlign=middle;resizable=0;points=[];autosize=1;strokeColor=none;fillColor=none;" vertex="1" parent="1">
          <mxGeometry x="1646" y="781.68" width="60" height="30" as="geometry" />
        </mxCell>
        <mxCell id="K5uNCjZK_XgeOnh1Dpxe-183" value="" style="whiteSpace=wrap;html=1;aspect=fixed;fillColor=none;" vertex="1" parent="1">
          <mxGeometry x="1466" y="679.3100000000001" width="258.18" height="258.18" as="geometry" />
        </mxCell>
        <mxCell id="K5uNCjZK_XgeOnh1Dpxe-184" value="Subtraction" style="text;html=1;align=center;verticalAlign=middle;resizable=0;points=[];autosize=1;strokeColor=none;fillColor=none;" vertex="1" parent="1">
          <mxGeometry x="1551" y="701.68" width="80" height="30" as="geometry" />
        </mxCell>
        <mxCell id="K5uNCjZK_XgeOnh1Dpxe-251" style="edgeStyle=orthogonalEdgeStyle;rounded=0;orthogonalLoop=1;jettySize=auto;html=1;exitX=0.5;exitY=0;exitDx=0;exitDy=0;" edge="1" parent="1" source="K5uNCjZK_XgeOnh1Dpxe-185">
          <mxGeometry relative="1" as="geometry">
            <mxPoint x="1185" y="155.31000000000006" as="targetPoint" />
          </mxGeometry>
        </mxCell>
        <mxCell id="K5uNCjZK_XgeOnh1Dpxe-185" value="" style="shape=trapezoid;perimeter=trapezoidPerimeter;whiteSpace=wrap;html=1;fixedSize=1;rotation=90;" vertex="1" parent="1">
          <mxGeometry x="1078" y="130.57000000000005" width="80" height="50" as="geometry" />
        </mxCell>
        <mxCell id="K5uNCjZK_XgeOnh1Dpxe-194" style="edgeStyle=orthogonalEdgeStyle;rounded=0;orthogonalLoop=1;jettySize=auto;html=1;exitX=1;exitY=0.5;exitDx=0;exitDy=0;exitPerimeter=0;entryX=1;entryY=0.5;entryDx=0;entryDy=0;" edge="1" parent="1" source="K5uNCjZK_XgeOnh1Dpxe-186" target="K5uNCjZK_XgeOnh1Dpxe-185">
          <mxGeometry relative="1" as="geometry" />
        </mxCell>
        <mxCell id="K5uNCjZK_XgeOnh1Dpxe-186" value="" style="verticalLabelPosition=bottom;shadow=0;dashed=0;align=center;html=1;verticalAlign=top;shape=mxgraph.electrical.logic_gates.logic_gate;operation=or;rotation=-90;" vertex="1" parent="1">
          <mxGeometry x="1081" y="223.20000000000005" width="77" height="49.37" as="geometry" />
        </mxCell>
        <mxCell id="K5uNCjZK_XgeOnh1Dpxe-187" value="" style="endArrow=none;html=1;rounded=0;" edge="1" parent="1">
          <mxGeometry width="50" height="50" relative="1" as="geometry">
            <mxPoint x="1117.98" y="289.94000000000005" as="sourcePoint" />
            <mxPoint x="1117.8899999999999" y="270.57000000000005" as="targetPoint" />
          </mxGeometry>
        </mxCell>
        <mxCell id="K5uNCjZK_XgeOnh1Dpxe-188" value="" style="endArrow=none;html=1;rounded=0;" edge="1" parent="1">
          <mxGeometry width="50" height="50" relative="1" as="geometry">
            <mxPoint x="1126.0900000000001" y="289.94000000000005" as="sourcePoint" />
            <mxPoint x="1126" y="270.57000000000005" as="targetPoint" />
          </mxGeometry>
        </mxCell>
        <mxCell id="K5uNCjZK_XgeOnh1Dpxe-189" value="0" style="text;html=1;align=center;verticalAlign=middle;resizable=0;points=[];autosize=1;strokeColor=none;fillColor=none;" vertex="1" parent="1">
          <mxGeometry x="1081" y="281.94000000000005" width="30" height="30" as="geometry" />
        </mxCell>
        <mxCell id="K5uNCjZK_XgeOnh1Dpxe-190" value="1" style="text;html=1;align=center;verticalAlign=middle;resizable=0;points=[];autosize=1;strokeColor=none;fillColor=none;" vertex="1" parent="1">
          <mxGeometry x="1103" y="281.94000000000005" width="30" height="30" as="geometry" />
        </mxCell>
        <mxCell id="K5uNCjZK_XgeOnh1Dpxe-191" value="2" style="text;html=1;align=center;verticalAlign=middle;resizable=0;points=[];autosize=1;strokeColor=none;fillColor=none;" vertex="1" parent="1">
          <mxGeometry x="1111" y="281.94000000000005" width="30" height="30" as="geometry" />
        </mxCell>
        <mxCell id="K5uNCjZK_XgeOnh1Dpxe-192" value="3" style="text;html=1;align=center;verticalAlign=middle;resizable=0;points=[];autosize=1;strokeColor=none;fillColor=none;" vertex="1" parent="1">
          <mxGeometry x="1128" y="281.94000000000005" width="30" height="30" as="geometry" />
        </mxCell>
        <mxCell id="K5uNCjZK_XgeOnh1Dpxe-193" value="ALU_FUN" style="text;html=1;align=center;verticalAlign=middle;resizable=0;points=[];autosize=1;strokeColor=none;fillColor=none;" vertex="1" parent="1">
          <mxGeometry x="1081" y="309.94000000000005" width="80" height="30" as="geometry" />
        </mxCell>
        <mxCell id="K5uNCjZK_XgeOnh1Dpxe-195" value="1" style="text;html=1;align=center;verticalAlign=middle;resizable=0;points=[];autosize=1;strokeColor=none;fillColor=none;" vertex="1" parent="1">
          <mxGeometry x="1091" y="159.94000000000005" width="30" height="30" as="geometry" />
        </mxCell>
        <mxCell id="K5uNCjZK_XgeOnh1Dpxe-196" value="0" style="text;html=1;align=center;verticalAlign=middle;resizable=0;points=[];autosize=1;strokeColor=none;fillColor=none;" vertex="1" parent="1">
          <mxGeometry x="1091" y="129.94000000000005" width="30" height="30" as="geometry" />
        </mxCell>
        <mxCell id="K5uNCjZK_XgeOnh1Dpxe-199" style="edgeStyle=orthogonalEdgeStyle;rounded=0;orthogonalLoop=1;jettySize=auto;html=1;" edge="1" parent="1" source="K5uNCjZK_XgeOnh1Dpxe-197">
          <mxGeometry relative="1" as="geometry">
            <mxPoint x="1086" y="174.94000000000017" as="targetPoint" />
          </mxGeometry>
        </mxCell>
        <mxCell id="K5uNCjZK_XgeOnh1Dpxe-197" value="1" style="text;html=1;align=center;verticalAlign=middle;resizable=0;points=[];autosize=1;strokeColor=none;fillColor=none;" vertex="1" parent="1">
          <mxGeometry x="1036" y="159.94000000000005" width="30" height="30" as="geometry" />
        </mxCell>
        <mxCell id="K5uNCjZK_XgeOnh1Dpxe-202" style="edgeStyle=orthogonalEdgeStyle;rounded=0;orthogonalLoop=1;jettySize=auto;html=1;" edge="1" parent="1" source="K5uNCjZK_XgeOnh1Dpxe-200">
          <mxGeometry relative="1" as="geometry">
            <mxPoint x="1086" y="144.94000000000017" as="targetPoint" />
          </mxGeometry>
        </mxCell>
        <mxCell id="K5uNCjZK_XgeOnh1Dpxe-200" value="0" style="text;html=1;align=center;verticalAlign=middle;resizable=0;points=[];autosize=1;strokeColor=none;fillColor=none;" vertex="1" parent="1">
          <mxGeometry x="1036" y="129.94000000000005" width="30" height="30" as="geometry" />
        </mxCell>
        <mxCell id="K5uNCjZK_XgeOnh1Dpxe-252" style="edgeStyle=orthogonalEdgeStyle;rounded=0;orthogonalLoop=1;jettySize=auto;html=1;exitX=0.5;exitY=0;exitDx=0;exitDy=0;" edge="1" parent="1" source="K5uNCjZK_XgeOnh1Dpxe-203">
          <mxGeometry relative="1" as="geometry">
            <mxPoint x="1195" y="387.9766666666668" as="targetPoint" />
          </mxGeometry>
        </mxCell>
        <mxCell id="K5uNCjZK_XgeOnh1Dpxe-203" value="" style="shape=trapezoid;perimeter=trapezoidPerimeter;whiteSpace=wrap;html=1;fixedSize=1;rotation=90;" vertex="1" parent="1">
          <mxGeometry x="1082.5" y="362.94000000000017" width="80" height="50" as="geometry" />
        </mxCell>
        <mxCell id="K5uNCjZK_XgeOnh1Dpxe-204" style="edgeStyle=orthogonalEdgeStyle;rounded=0;orthogonalLoop=1;jettySize=auto;html=1;exitX=1;exitY=0.5;exitDx=0;exitDy=0;exitPerimeter=0;entryX=1;entryY=0.5;entryDx=0;entryDy=0;" edge="1" parent="1" source="K5uNCjZK_XgeOnh1Dpxe-205" target="K5uNCjZK_XgeOnh1Dpxe-203">
          <mxGeometry relative="1" as="geometry" />
        </mxCell>
        <mxCell id="K5uNCjZK_XgeOnh1Dpxe-205" value="" style="verticalLabelPosition=bottom;shadow=0;dashed=0;align=center;html=1;verticalAlign=top;shape=mxgraph.electrical.logic_gates.logic_gate;operation=or;rotation=-90;" vertex="1" parent="1">
          <mxGeometry x="1088.94" y="452.1300000000002" width="87.5" height="66.74" as="geometry" />
        </mxCell>
        <mxCell id="K5uNCjZK_XgeOnh1Dpxe-206" value="" style="endArrow=none;html=1;rounded=0;" edge="1" parent="1">
          <mxGeometry width="50" height="50" relative="1" as="geometry">
            <mxPoint x="1125.12" y="526.9900000000001" as="sourcePoint" />
            <mxPoint x="1125.03" y="507.62" as="targetPoint" />
          </mxGeometry>
        </mxCell>
        <mxCell id="K5uNCjZK_XgeOnh1Dpxe-207" value="" style="endArrow=none;html=1;rounded=0;" edge="1" parent="1">
          <mxGeometry width="50" height="50" relative="1" as="geometry">
            <mxPoint x="1137.5900000000001" y="526.9900000000001" as="sourcePoint" />
            <mxPoint x="1137.5" y="507.62" as="targetPoint" />
          </mxGeometry>
        </mxCell>
        <mxCell id="K5uNCjZK_XgeOnh1Dpxe-208" value="4" style="text;html=1;align=center;verticalAlign=middle;resizable=0;points=[];autosize=1;strokeColor=none;fillColor=none;" vertex="1" parent="1">
          <mxGeometry x="1095.5" y="522.3100000000001" width="30" height="30" as="geometry" />
        </mxCell>
        <mxCell id="K5uNCjZK_XgeOnh1Dpxe-209" value="5" style="text;html=1;align=center;verticalAlign=middle;resizable=0;points=[];autosize=1;strokeColor=none;fillColor=none;" vertex="1" parent="1">
          <mxGeometry x="1108.13" y="522.3100000000001" width="30" height="30" as="geometry" />
        </mxCell>
        <mxCell id="K5uNCjZK_XgeOnh1Dpxe-210" value="6" style="text;html=1;align=center;verticalAlign=middle;resizable=0;points=[];autosize=1;strokeColor=none;fillColor=none;" vertex="1" parent="1">
          <mxGeometry x="1121" y="522.3100000000001" width="30" height="30" as="geometry" />
        </mxCell>
        <mxCell id="K5uNCjZK_XgeOnh1Dpxe-211" value="7" style="text;html=1;align=center;verticalAlign=middle;resizable=0;points=[];autosize=1;strokeColor=none;fillColor=none;" vertex="1" parent="1">
          <mxGeometry x="1138.13" y="522.3100000000001" width="30" height="30" as="geometry" />
        </mxCell>
        <mxCell id="K5uNCjZK_XgeOnh1Dpxe-212" value="ALU_FUN" style="text;html=1;align=center;verticalAlign=middle;resizable=0;points=[];autosize=1;strokeColor=none;fillColor=none;" vertex="1" parent="1">
          <mxGeometry x="1075.91" y="689.3100000000001" width="80" height="30" as="geometry" />
        </mxCell>
        <mxCell id="K5uNCjZK_XgeOnh1Dpxe-213" value="1" style="text;html=1;align=center;verticalAlign=middle;resizable=0;points=[];autosize=1;strokeColor=none;fillColor=none;" vertex="1" parent="1">
          <mxGeometry x="1095.5" y="392.31000000000006" width="30" height="30" as="geometry" />
        </mxCell>
        <mxCell id="K5uNCjZK_XgeOnh1Dpxe-214" value="0" style="text;html=1;align=center;verticalAlign=middle;resizable=0;points=[];autosize=1;strokeColor=none;fillColor=none;" vertex="1" parent="1">
          <mxGeometry x="1095.5" y="362.31000000000006" width="30" height="30" as="geometry" />
        </mxCell>
        <mxCell id="K5uNCjZK_XgeOnh1Dpxe-215" style="edgeStyle=orthogonalEdgeStyle;rounded=0;orthogonalLoop=1;jettySize=auto;html=1;" edge="1" parent="1">
          <mxGeometry relative="1" as="geometry">
            <mxPoint x="1090.5" y="407.31000000000006" as="targetPoint" />
            <mxPoint x="1070.5" y="407.67999999999995" as="sourcePoint" />
          </mxGeometry>
        </mxCell>
        <mxCell id="K5uNCjZK_XgeOnh1Dpxe-216" style="edgeStyle=orthogonalEdgeStyle;rounded=0;orthogonalLoop=1;jettySize=auto;html=1;" edge="1" parent="1">
          <mxGeometry relative="1" as="geometry">
            <mxPoint x="1090.5" y="377.31000000000006" as="targetPoint" />
            <mxPoint x="1070.5" y="377.67999999999995" as="sourcePoint" />
          </mxGeometry>
        </mxCell>
        <mxCell id="K5uNCjZK_XgeOnh1Dpxe-217" value="1" style="text;html=1;align=center;verticalAlign=middle;resizable=0;points=[];autosize=1;strokeColor=none;fillColor=none;" vertex="1" parent="1">
          <mxGeometry x="1036" y="392.31000000000006" width="30" height="30" as="geometry" />
        </mxCell>
        <mxCell id="K5uNCjZK_XgeOnh1Dpxe-218" value="0" style="text;html=1;align=center;verticalAlign=middle;resizable=0;points=[];autosize=1;strokeColor=none;fillColor=none;" vertex="1" parent="1">
          <mxGeometry x="1036" y="362.31000000000006" width="30" height="30" as="geometry" />
        </mxCell>
        <mxCell id="K5uNCjZK_XgeOnh1Dpxe-253" style="edgeStyle=orthogonalEdgeStyle;rounded=0;orthogonalLoop=1;jettySize=auto;html=1;exitX=0.5;exitY=0;exitDx=0;exitDy=0;" edge="1" parent="1" source="K5uNCjZK_XgeOnh1Dpxe-219">
          <mxGeometry relative="1" as="geometry">
            <mxPoint x="1575" y="153.31000000000006" as="targetPoint" />
          </mxGeometry>
        </mxCell>
        <mxCell id="K5uNCjZK_XgeOnh1Dpxe-219" value="" style="shape=trapezoid;perimeter=trapezoidPerimeter;whiteSpace=wrap;html=1;fixedSize=1;rotation=90;" vertex="1" parent="1">
          <mxGeometry x="1451.5" y="128.5100000000001" width="80" height="50" as="geometry" />
        </mxCell>
        <mxCell id="K5uNCjZK_XgeOnh1Dpxe-220" style="edgeStyle=orthogonalEdgeStyle;rounded=0;orthogonalLoop=1;jettySize=auto;html=1;exitX=1;exitY=0.5;exitDx=0;exitDy=0;exitPerimeter=0;entryX=1;entryY=0.5;entryDx=0;entryDy=0;" edge="1" parent="1" source="K5uNCjZK_XgeOnh1Dpxe-221" target="K5uNCjZK_XgeOnh1Dpxe-219">
          <mxGeometry relative="1" as="geometry" />
        </mxCell>
        <mxCell id="K5uNCjZK_XgeOnh1Dpxe-221" value="" style="verticalLabelPosition=bottom;shadow=0;dashed=0;align=center;html=1;verticalAlign=top;shape=mxgraph.electrical.logic_gates.logic_gate;operation=or;rotation=-90;" vertex="1" parent="1">
          <mxGeometry x="1457.94" y="217.70000000000016" width="87.5" height="66.74" as="geometry" />
        </mxCell>
        <mxCell id="K5uNCjZK_XgeOnh1Dpxe-222" value="" style="endArrow=none;html=1;rounded=0;" edge="1" parent="1">
          <mxGeometry width="50" height="50" relative="1" as="geometry">
            <mxPoint x="1494.12" y="292.56000000000006" as="sourcePoint" />
            <mxPoint x="1494.03" y="273.18999999999994" as="targetPoint" />
          </mxGeometry>
        </mxCell>
        <mxCell id="K5uNCjZK_XgeOnh1Dpxe-223" value="" style="endArrow=none;html=1;rounded=0;" edge="1" parent="1">
          <mxGeometry width="50" height="50" relative="1" as="geometry">
            <mxPoint x="1506.5900000000001" y="292.56000000000006" as="sourcePoint" />
            <mxPoint x="1506.5" y="273.18999999999994" as="targetPoint" />
          </mxGeometry>
        </mxCell>
        <mxCell id="K5uNCjZK_XgeOnh1Dpxe-224" value="8" style="text;html=1;align=center;verticalAlign=middle;resizable=0;points=[];autosize=1;strokeColor=none;fillColor=none;" vertex="1" parent="1">
          <mxGeometry x="1464.5" y="287.88" width="30" height="30" as="geometry" />
        </mxCell>
        <mxCell id="K5uNCjZK_XgeOnh1Dpxe-225" value="9" style="text;html=1;align=center;verticalAlign=middle;resizable=0;points=[];autosize=1;strokeColor=none;fillColor=none;" vertex="1" parent="1">
          <mxGeometry x="1477.13" y="287.88" width="30" height="30" as="geometry" />
        </mxCell>
        <mxCell id="K5uNCjZK_XgeOnh1Dpxe-226" value="10" style="text;html=1;align=center;verticalAlign=middle;resizable=0;points=[];autosize=1;strokeColor=none;fillColor=none;" vertex="1" parent="1">
          <mxGeometry x="1485" y="287.88" width="40" height="30" as="geometry" />
        </mxCell>
        <mxCell id="K5uNCjZK_XgeOnh1Dpxe-227" value="11" style="text;html=1;align=center;verticalAlign=middle;resizable=0;points=[];autosize=1;strokeColor=none;fillColor=none;" vertex="1" parent="1">
          <mxGeometry x="1502.13" y="287.88" width="40" height="30" as="geometry" />
        </mxCell>
        <mxCell id="K5uNCjZK_XgeOnh1Dpxe-228" value="ALU_FUN" style="text;html=1;align=center;verticalAlign=middle;resizable=0;points=[];autosize=1;strokeColor=none;fillColor=none;" vertex="1" parent="1">
          <mxGeometry x="1460" y="337.88" width="80" height="30" as="geometry" />
        </mxCell>
        <mxCell id="K5uNCjZK_XgeOnh1Dpxe-229" value="1" style="text;html=1;align=center;verticalAlign=middle;resizable=0;points=[];autosize=1;strokeColor=none;fillColor=none;" vertex="1" parent="1">
          <mxGeometry x="1464.5" y="157.88" width="30" height="30" as="geometry" />
        </mxCell>
        <mxCell id="K5uNCjZK_XgeOnh1Dpxe-230" value="0" style="text;html=1;align=center;verticalAlign=middle;resizable=0;points=[];autosize=1;strokeColor=none;fillColor=none;" vertex="1" parent="1">
          <mxGeometry x="1464.5" y="127.87999999999998" width="30" height="30" as="geometry" />
        </mxCell>
        <mxCell id="K5uNCjZK_XgeOnh1Dpxe-231" style="edgeStyle=orthogonalEdgeStyle;rounded=0;orthogonalLoop=1;jettySize=auto;html=1;" edge="1" parent="1">
          <mxGeometry relative="1" as="geometry">
            <mxPoint x="1459.5" y="172.88000000000022" as="targetPoint" />
            <mxPoint x="1439.5" y="173.2500000000001" as="sourcePoint" />
          </mxGeometry>
        </mxCell>
        <mxCell id="K5uNCjZK_XgeOnh1Dpxe-232" style="edgeStyle=orthogonalEdgeStyle;rounded=0;orthogonalLoop=1;jettySize=auto;html=1;" edge="1" parent="1">
          <mxGeometry relative="1" as="geometry">
            <mxPoint x="1459.5" y="142.88000000000022" as="targetPoint" />
            <mxPoint x="1439.5" y="143.2500000000001" as="sourcePoint" />
          </mxGeometry>
        </mxCell>
        <mxCell id="K5uNCjZK_XgeOnh1Dpxe-233" value="1" style="text;html=1;align=center;verticalAlign=middle;resizable=0;points=[];autosize=1;strokeColor=none;fillColor=none;" vertex="1" parent="1">
          <mxGeometry x="1405" y="157.88" width="30" height="30" as="geometry" />
        </mxCell>
        <mxCell id="K5uNCjZK_XgeOnh1Dpxe-234" value="0" style="text;html=1;align=center;verticalAlign=middle;resizable=0;points=[];autosize=1;strokeColor=none;fillColor=none;" vertex="1" parent="1">
          <mxGeometry x="1405" y="127.87999999999998" width="30" height="30" as="geometry" />
        </mxCell>
        <mxCell id="K5uNCjZK_XgeOnh1Dpxe-254" style="edgeStyle=orthogonalEdgeStyle;rounded=0;orthogonalLoop=1;jettySize=auto;html=1;exitX=0.5;exitY=0;exitDx=0;exitDy=0;" edge="1" parent="1" source="K5uNCjZK_XgeOnh1Dpxe-235">
          <mxGeometry relative="1" as="geometry">
            <mxPoint x="1575" y="422.6433333333333" as="targetPoint" />
          </mxGeometry>
        </mxCell>
        <mxCell id="K5uNCjZK_XgeOnh1Dpxe-235" value="" style="shape=trapezoid;perimeter=trapezoidPerimeter;whiteSpace=wrap;html=1;fixedSize=1;rotation=90;" vertex="1" parent="1">
          <mxGeometry x="1456.5" y="397.94000000000017" width="80" height="50" as="geometry" />
        </mxCell>
        <mxCell id="K5uNCjZK_XgeOnh1Dpxe-236" style="edgeStyle=orthogonalEdgeStyle;rounded=0;orthogonalLoop=1;jettySize=auto;html=1;exitX=1;exitY=0.5;exitDx=0;exitDy=0;exitPerimeter=0;entryX=1;entryY=0.5;entryDx=0;entryDy=0;" edge="1" parent="1" source="K5uNCjZK_XgeOnh1Dpxe-237" target="K5uNCjZK_XgeOnh1Dpxe-235">
          <mxGeometry relative="1" as="geometry" />
        </mxCell>
        <mxCell id="K5uNCjZK_XgeOnh1Dpxe-237" value="" style="verticalLabelPosition=bottom;shadow=0;dashed=0;align=center;html=1;verticalAlign=top;shape=mxgraph.electrical.logic_gates.logic_gate;operation=or;rotation=-90;" vertex="1" parent="1">
          <mxGeometry x="1462.94" y="487.1300000000002" width="87.5" height="66.74" as="geometry" />
        </mxCell>
        <mxCell id="K5uNCjZK_XgeOnh1Dpxe-239" value="" style="endArrow=none;html=1;rounded=0;" edge="1" parent="1">
          <mxGeometry width="50" height="50" relative="1" as="geometry">
            <mxPoint x="1507.2200000000003" y="561.9900000000001" as="sourcePoint" />
            <mxPoint x="1507.13" y="542.62" as="targetPoint" />
          </mxGeometry>
        </mxCell>
        <mxCell id="K5uNCjZK_XgeOnh1Dpxe-240" value="12" style="text;html=1;align=center;verticalAlign=middle;resizable=0;points=[];autosize=1;strokeColor=none;fillColor=none;" vertex="1" parent="1">
          <mxGeometry x="1464.5" y="557.3100000000001" width="40" height="30" as="geometry" />
        </mxCell>
        <mxCell id="K5uNCjZK_XgeOnh1Dpxe-241" value="13" style="text;html=1;align=center;verticalAlign=middle;resizable=0;points=[];autosize=1;strokeColor=none;fillColor=none;" vertex="1" parent="1">
          <mxGeometry x="1485" y="557.3100000000001" width="40" height="30" as="geometry" />
        </mxCell>
        <mxCell id="K5uNCjZK_XgeOnh1Dpxe-242" value="14" style="text;html=1;align=center;verticalAlign=middle;resizable=0;points=[];autosize=1;strokeColor=none;fillColor=none;" vertex="1" parent="1">
          <mxGeometry x="1507.13" y="557.3100000000001" width="40" height="30" as="geometry" />
        </mxCell>
        <mxCell id="K5uNCjZK_XgeOnh1Dpxe-244" value="ALU_FUN" style="text;html=1;align=center;verticalAlign=middle;resizable=0;points=[];autosize=1;strokeColor=none;fillColor=none;" vertex="1" parent="1">
          <mxGeometry x="1465" y="607.3100000000001" width="80" height="30" as="geometry" />
        </mxCell>
        <mxCell id="K5uNCjZK_XgeOnh1Dpxe-245" value="1" style="text;html=1;align=center;verticalAlign=middle;resizable=0;points=[];autosize=1;strokeColor=none;fillColor=none;" vertex="1" parent="1">
          <mxGeometry x="1469.5" y="427.31000000000006" width="30" height="30" as="geometry" />
        </mxCell>
        <mxCell id="K5uNCjZK_XgeOnh1Dpxe-246" value="0" style="text;html=1;align=center;verticalAlign=middle;resizable=0;points=[];autosize=1;strokeColor=none;fillColor=none;" vertex="1" parent="1">
          <mxGeometry x="1469.5" y="397.31000000000006" width="30" height="30" as="geometry" />
        </mxCell>
        <mxCell id="K5uNCjZK_XgeOnh1Dpxe-247" style="edgeStyle=orthogonalEdgeStyle;rounded=0;orthogonalLoop=1;jettySize=auto;html=1;" edge="1" parent="1">
          <mxGeometry relative="1" as="geometry">
            <mxPoint x="1464.5" y="442.31000000000006" as="targetPoint" />
            <mxPoint x="1444.5" y="442.67999999999995" as="sourcePoint" />
          </mxGeometry>
        </mxCell>
        <mxCell id="K5uNCjZK_XgeOnh1Dpxe-248" style="edgeStyle=orthogonalEdgeStyle;rounded=0;orthogonalLoop=1;jettySize=auto;html=1;" edge="1" parent="1">
          <mxGeometry relative="1" as="geometry">
            <mxPoint x="1464.5" y="412.31000000000006" as="targetPoint" />
            <mxPoint x="1444.5" y="412.67999999999995" as="sourcePoint" />
          </mxGeometry>
        </mxCell>
        <mxCell id="K5uNCjZK_XgeOnh1Dpxe-249" value="1" style="text;html=1;align=center;verticalAlign=middle;resizable=0;points=[];autosize=1;strokeColor=none;fillColor=none;" vertex="1" parent="1">
          <mxGeometry x="1410" y="427.31000000000006" width="30" height="30" as="geometry" />
        </mxCell>
        <mxCell id="K5uNCjZK_XgeOnh1Dpxe-250" value="0" style="text;html=1;align=center;verticalAlign=middle;resizable=0;points=[];autosize=1;strokeColor=none;fillColor=none;" vertex="1" parent="1">
          <mxGeometry x="1410" y="397.31000000000006" width="30" height="30" as="geometry" />
        </mxCell>
        <mxCell id="K5uNCjZK_XgeOnh1Dpxe-255" value="" style="verticalLabelPosition=bottom;shadow=0;dashed=0;align=center;html=1;verticalAlign=top;shape=mxgraph.electrical.logic_gates.d_type_flip-flop;" vertex="1" parent="1">
          <mxGeometry x="1185" y="134.94000000000005" width="100" height="80" as="geometry" />
        </mxCell>
        <mxCell id="K5uNCjZK_XgeOnh1Dpxe-261" style="edgeStyle=orthogonalEdgeStyle;rounded=0;orthogonalLoop=1;jettySize=auto;html=1;exitX=1;exitY=0.25;exitDx=0;exitDy=0;exitPerimeter=0;" edge="1" parent="1" source="K5uNCjZK_XgeOnh1Dpxe-258">
          <mxGeometry relative="1" as="geometry">
            <mxPoint x="1685.533203125" y="152.64333333333332" as="targetPoint" />
          </mxGeometry>
        </mxCell>
        <mxCell id="K5uNCjZK_XgeOnh1Dpxe-258" value="" style="verticalLabelPosition=bottom;shadow=0;dashed=0;align=center;html=1;verticalAlign=top;shape=mxgraph.electrical.logic_gates.d_type_flip-flop;" vertex="1" parent="1">
          <mxGeometry x="1565" y="132.88" width="100" height="80" as="geometry" />
        </mxCell>
        <mxCell id="K5uNCjZK_XgeOnh1Dpxe-259" value="" style="verticalLabelPosition=bottom;shadow=0;dashed=0;align=center;html=1;verticalAlign=top;shape=mxgraph.electrical.logic_gates.d_type_flip-flop;" vertex="1" parent="1">
          <mxGeometry x="1575" y="402.31000000000006" width="100" height="80" as="geometry" />
        </mxCell>
        <mxCell id="K5uNCjZK_XgeOnh1Dpxe-260" value="" style="verticalLabelPosition=bottom;shadow=0;dashed=0;align=center;html=1;verticalAlign=top;shape=mxgraph.electrical.logic_gates.d_type_flip-flop;" vertex="1" parent="1">
          <mxGeometry x="1195" y="367.88" width="100" height="80" as="geometry" />
        </mxCell>
        <mxCell id="K5uNCjZK_XgeOnh1Dpxe-262" value="CMP_Flag" style="text;html=1;align=center;verticalAlign=middle;resizable=0;points=[];autosize=1;strokeColor=none;fillColor=none;" vertex="1" parent="1">
          <mxGeometry x="1675" y="138.5100000000001" width="80" height="30" as="geometry" />
        </mxCell>
        <mxCell id="K5uNCjZK_XgeOnh1Dpxe-263" value="Shift_Flag" style="text;html=1;align=center;verticalAlign=middle;resizable=0;points=[];autosize=1;strokeColor=none;fillColor=none;" vertex="1" parent="1">
          <mxGeometry x="1665" y="407.94000000000017" width="80" height="30" as="geometry" />
        </mxCell>
        <mxCell id="K5uNCjZK_XgeOnh1Dpxe-264" value="Artih_Flag" style="text;html=1;align=center;verticalAlign=middle;resizable=0;points=[];autosize=1;strokeColor=none;fillColor=none;" vertex="1" parent="1">
          <mxGeometry x="1275" y="138.5100000000001" width="80" height="30" as="geometry" />
        </mxCell>
        <mxCell id="K5uNCjZK_XgeOnh1Dpxe-265" value="Logic_Flag" style="text;html=1;align=center;verticalAlign=middle;resizable=0;points=[];autosize=1;strokeColor=none;fillColor=none;" vertex="1" parent="1">
          <mxGeometry x="1285" y="370.31000000000006" width="80" height="30" as="geometry" />
        </mxCell>
        <mxCell id="K5uNCjZK_XgeOnh1Dpxe-268" value="" style="whiteSpace=wrap;html=1;aspect=fixed;fillColor=none;" vertex="1" parent="1">
          <mxGeometry x="990" y="49.310000000000045" width="1031.37" height="1031.37" as="geometry" />
        </mxCell>
      </root>
    </mxGraphModel>
  </diagram>
</mxfile>
